# xmcd
#
# Track frame offsets: 
#        150
#        18732
#        39380
#        57900
#        78737
#        96905
#        115545
#        135027
#        150537
#        165922
#        184170
#        203442
#        218565
#
# Disc length: 3165 seconds
#
# Revision: 0
# Processed by: cddbd v1.5.2PL0 Copyright (c) Steve Scherf et al.
# Submitted via: ExactAudioCopy v0.90b4
#
DISCID=980c5b0d
DTITLE=Iluxion - Something Else
DYEAR=2004
DGENRE=Latin
TTITLE0=El Licor
TTITLE1=La Carta
TTITLE2=La Hija De Don Andrés
TTITLE3=La Escuela
TTITLE4=Madre
TTITLE5=De Cuatro Maneras
TTITLE6=La Perdi
TTITLE7=Una Noche Mas
TTITLE8=Yo Trate
TTITLE9=Guerra De Amor
TTITLE10=Ilución De Amor
TTITLE11=Talking To Love
TTITLE12=Sácale El Jugo
EXTD=
EXTT0=
EXTT1=
EXTT2=
EXTT3=
EXTT4=
EXTT5=
EXTT6=
EXTT7=
EXTT8=
EXTT9=
EXTT10=
EXTT11=
EXTT12=
PLAYORDER=
